<?xml version="1.0" encoding="UTF-8"?>
<svg xmlns="http://www.w3.org/2000/svg" xmlns:xlink="http://www.w3.org/1999/xlink" width="595pt" height="842pt" viewBox="0 0 595 842" version="1.1">
<defs>
<clipPath id="clip1">
  <path d="M 0 328.601562 L 513.398438 328.601562 L 513.398438 842 L 0 842 Z M 0 328.601562 "/>
</clipPath>
</defs>
<g id="surface1">
<g clip-path="url(#clip1)" clip-rule="nonzero">
<path style=" stroke:none;fill-rule:nonzero;fill:rgb(1.713562%,2.252197%,2.304077%);fill-opacity:1;" d="M 468.34375 842 L 45.058594 842 C 20.171875 842 0 821.828125 0 796.941406 L 0 373.65625 C 0 348.773438 20.171875 328.601562 45.058594 328.601562 L 468.34375 328.601562 C 493.226562 328.601562 513.398438 348.773438 513.398438 373.65625 L 513.398438 796.941406 C 513.398438 821.828125 493.226562 842 468.34375 842 "/>
</g>
<path style=" stroke:none;fill-rule:nonzero;fill:rgb(100%,100%,100%);fill-opacity:1;" d="M 350.441406 545.671875 C 343.691406 545.671875 338.21875 540.195312 338.222656 533.441406 L 338.242188 479.410156 L 333.734375 479.410156 C 305.78125 479.410156 295.386719 484.023438 295.386719 509.484375 L 295.386719 569.066406 C 295.382812 569.195312 295.367188 569.316406 295.367188 569.445312 L 295.367188 582.503906 C 295.359375 582.957031 295.332031 583.378906 295.332031 583.84375 L 295.332031 667.09375 C 295.332031 677.261719 293.371094 685.355469 289.328125 691.648438 C 281.707031 703.390625 266.617188 708.726562 242.476562 708.761719 C 218.34375 708.726562 203.253906 703.394531 195.632812 691.660156 C 191.582031 685.367188 189.621094 677.269531 189.621094 667.09375 L 189.621094 583.84375 C 189.621094 583.378906 189.589844 582.957031 189.585938 582.503906 L 189.585938 569.445312 C 189.585938 569.316406 189.566406 569.195312 189.566406 569.066406 L 189.566406 509.484375 C 189.566406 484.023438 179.171875 479.410156 151.21875 479.410156 L 142.417969 479.410156 C 114.460938 479.410156 104.066406 484.023438 104.066406 509.484375 L 104.066406 667.09375 C 104.066406 692.445312 109.785156 713.914062 120.835938 731.214844 C 142.171875 764.746094 183.5 782.605469 242.257812 782.605469 C 242.332031 782.605469 242.402344 782.605469 242.476562 782.605469 C 242.546875 782.605469 242.617188 782.605469 242.691406 782.605469 C 301.449219 782.605469 342.78125 764.746094 364.117188 731.214844 C 375.167969 713.914062 380.882812 692.445312 380.882812 667.09375 L 380.882812 545.683594 L 350.441406 545.671875 "/>
<path style=" stroke:none;fill-rule:nonzero;fill:rgb(100%,100%,100%);fill-opacity:1;" d="M 472.132812 458.609375 L 432.707031 458.597656 C 428.40625 458.59375 424.921875 455.105469 424.921875 450.808594 L 424.9375 410.894531 C 424.9375 406.59375 428.425781 403.109375 432.726562 403.109375 L 472.152344 403.125 C 476.453125 403.125 479.9375 406.613281 479.933594 410.914062 L 479.921875 450.824219 C 479.917969 455.128906 476.433594 458.609375 472.132812 458.609375 "/>
<path style=" stroke:none;fill-rule:nonzero;fill:rgb(100%,100%,100%);fill-opacity:1;" d="M 419.597656 403.113281 L 392.820312 403.105469 C 389.898438 403.105469 387.53125 400.734375 387.53125 397.816406 L 387.542969 370.707031 C 387.542969 367.785156 389.910156 365.417969 392.832031 365.421875 L 419.609375 365.429688 C 422.53125 365.429688 424.898438 367.800781 424.894531 370.71875 L 424.886719 397.828125 C 424.886719 400.746094 422.515625 403.113281 419.597656 403.113281 "/>
<path style=" stroke:none;fill-rule:nonzero;fill:rgb(100%,100%,100%);fill-opacity:1;" d="M 412.378906 458.574219 L 350.472656 458.554688 C 343.722656 458.550781 338.246094 464.023438 338.242188 470.773438 L 338.242188 479.410156 L 342.535156 479.410156 C 370.488281 479.410156 380.882812 484.023438 380.882812 509.484375 L 380.882812 545.683594 L 412.347656 545.695312 C 419.097656 545.695312 424.574219 540.226562 424.574219 533.472656 L 424.597656 470.804688 C 424.601562 464.050781 419.128906 458.574219 412.378906 458.574219 "/>
</g>
</svg>
